<?xml version="1.0" encoding="UTF-8" standalone="no"?>
<!-- Created with Inkscape (http://www.inkscape.org/) -->

<svg
   xmlns:dc="http://purl.org/dc/elements/1.1/"
   xmlns:cc="http://creativecommons.org/ns#"
   xmlns:rdf="http://www.w3.org/1999/02/22-rdf-syntax-ns#"
   xmlns:svg="http://www.w3.org/2000/svg"
   xmlns="http://www.w3.org/2000/svg"
   xmlns:sodipodi="http://sodipodi.sourceforge.net/DTD/sodipodi-0.dtd"
   xmlns:inkscape="http://www.inkscape.org/namespaces/inkscape"
   width="744.09003"
   height="744.09003"
   id="svg2"
   version="1.1"
   inkscape:version="0.48.3.1 r9886"
   sodipodi:docname="eid_mubarak.svg">
  <defs
     id="defs4" />
  <sodipodi:namedview
     id="base"
     pagecolor="#ffffff"
     bordercolor="#666666"
     borderopacity="1.0"
     inkscape:pageopacity="0.0"
     inkscape:pageshadow="2"
     inkscape:zoom="1.4"
     inkscape:cx="425.28743"
     inkscape:cy="313.74563"
     inkscape:document-units="px"
     inkscape:current-layer="layer1"
     showgrid="false"
     inkscape:window-width="1920"
     inkscape:window-height="1019"
     inkscape:window-x="-9"
     inkscape:window-y="-9"
     inkscape:window-maximized="1" />
  <metadata
     id="metadata7">
    <rdf:RDF>
      <cc:Work
         rdf:about="">
        <dc:format>image/svg+xml</dc:format>
        <dc:type
           rdf:resource="http://purl.org/dc/dcmitype/StillImage" />
        <dc:title />
      </cc:Work>
    </rdf:RDF>
  </metadata>
  <g
     inkscape:label="Layer 1"
     inkscape:groupmode="layer"
     id="layer1"
     transform="translate(0,-308.27218)">
    <path
       style="fill:#000000;stroke:#000000;stroke-width:3.28721166;stroke-miterlimit:4;stroke-dasharray:none"
       d="m 326.48983,393.76772 c -2.77463,7.49255 -6.25195,12.93814 -7.84707,23.96926 l 3.2815,7.50465 c 6.95707,89.51782 15.79589,178.0764 20.85896,268.54122 -8.83374,8.81633 -17.63461,16.14248 -28.20439,22.35475 l 0.98491,22.05558 31.12875,-27.43211 c 5.04946,-10.58109 6.83448,-19.71156 8.47484,-27.73584 -4.82251,-80.13962 -12.00243,-158.83024 -18.91859,-238.55113 2.8029,1.63176 5.51688,4.43464 11.10005,4.08048 -4.62965,-19.13506 -12.85942,-36.9155 -20.85896,-54.78686 z m -32.72944,5.36455 -0.68483,10.84323 c 16.30475,12.56513 13.04487,32.19618 11.52806,50.73492 6.99754,-23.33618 6.44855,-44.81697 -10.84323,-61.57815 z m 121.8437,8.33217 c -6.67914,3.60843 -9.49738,11.40469 -11.52807,19.14687 -1.38358,4.99625 -2.24035,11.38273 -3.62392,16.37898 -5.13383,-11.75998 -11.29443,-25.80655 -24.51142,-29.9901 -2.16817,3.99255 -3.31419,7.36936 -3.90927,10.84324 1.96333,4.66918 5.74824,6.95854 8.30363,8.07535 11.63836,-7.45618 14.65461,18.31189 17.63453,26.90834 2.38282,-3.61267 2.63523,-6.13808 4.36582,-11.29979 0,0 3.78385,-14.13544 4.73678,-17.23503 1.08762,-3.5377 4.65264,-12.74936 6.93397,-12.66946 4.89982,0.14009 5.31879,3.8149 7.36198,6.22059 2.34946,-4.02765 3.85847,-5.75525 1.62649,-10.61496 -1.45413,-2.59202 -3.35484,-4.89305 -7.39052,-5.76403 z m -139.33555,3.25297 c -3.09571,5.0098 -5.93189,11.09849 -8.16095,19.57489 8.20157,58.28596 11.20318,121.25865 16.29338,183.43382 3.93607,2.04266 9.02385,4.76008 14.69543,5.06722 -5.92095,-84.54817 -8.81006,-196.39928 -22.82786,-208.07593 z m -33.38574,13.21162 -0.68483,10.8147 c 16.30475,12.56513 13.04488,32.19617 11.52806,50.73492 6.99754,-23.33618 6.44855,-44.78844 -10.84323,-61.54962 z m -28.90577,9.30235 c -2.12526,9.13115 -3.64862,18.26229 -4.90799,27.39343 12.20569,14.53157 26.51029,64.64009 27.07954,107.94724 -36.1961,43.48741 -71.20646,79.15958 -122.30025,80.86769 -21.253126,-1.05913 -20.134711,-14.02226 -19.88877,-25.11064 0.602518,-27.16494 12.02143,-43.53854 20.85896,-60.66504 -1.81511,3.23084 -2.69241,1.43814 -4.56558,4.5085 -8.50344,13.93822 -18.085835,32.30937 -22.171554,56.15654 -3.364484,19.63752 0.522775,52.35337 25.453064,51.53389 36.59894,-1.20305 113.48005,-51.65395 128.49231,-100.785 1.97048,20.29736 3.5378,40.38668 14.98078,56.09946 8.47284,11.63438 24.96532,20.23119 33.9279,20.23119 l 38.94729,-0.6563 -1.26934,-21.10013 c -26.68691,-0.16963 -43.2163,2.24017 -61.16211,-15.42444 -7.91389,-7.7899 -10.26382,-21.03698 -13.38283,-34.89809 -6.47201,-93.92969 -22.66155,-116.22994 -40.09142,-146.0983 z m 206.04995,17.1209 -0.7419,11.35686 c 17.07063,13.15535 13.65829,33.69373 12.07023,53.1033 7.32623,-24.43236 6.77571,-46.91166 -11.32833,-64.46016 z m 87.28803,3.08176 c -16.36123,-0.1658 -32.48667,3.84405 -44.51433,13.38283 -21.1519,18.20422 -19.2702,51.43316 -2.6252,76.95842 11.58904,11.63454 25.33273,20.98138 38.15106,24.62555 -13.87312,15.24717 -24.06765,27.76357 -33.87084,41.3755 -27.73532,-5.35123 -34.21601,-18.48912 -34.61274,-43.43001 -10.72264,-0.27056 -17.76859,18.52199 -25.45306,25.82402 -12.48319,13.63805 -27.84853,20.8969 -43.3444,27.90706 l 1.31261,24.79676 20.20265,-11.10005 c 16.23382,-10.60217 32.19817,-26.45901 39.14978,-46.93978 -0.30307,21.77398 7.73557,39.38055 28.6775,48.90868 -25.12348,36.96263 -26.43609,126.86578 30.90321,153.8027 47.73835,21.78058 107.19109,7.48063 142.67411,-33.186 36.64032,-40.71148 60.33507,-131.73297 -26.50885,-140.22012 l -119.01874,-5.19334 c 32.1749,-36.30444 76.49986,-54.93041 125.23934,-78.24248 l 9.13114,-24.14046 c -29.07685,12.79753 -50.1714,31.09666 -88.05847,37.83717 -34.23829,0.26289 -57.67606,-24.78309 -65.85837,-59.35243 10.19104,-8.27508 24.3857,-12.60187 44.99942,-15.66562 22.38626,-1.9431 45.53158,0.47791 64.5743,5.22188 -12.82171,-13.77125 -37.23757,-22.92797 -61.15012,-23.17028 z m -132.43012,5.10773 c -32.89857,41.02923 -0.50358,63.46794 4.53704,27.93559 -1.97436,4.3671 -5.30798,11.00586 -11.87049,7.5332 -6.5625,-3.47266 3.33722,-26.79337 7.33345,-35.46879 z M 177.7378,479.48633 c -38.28863,47.7514 -0.55899,73.85507 5.30748,32.50117 -2.29785,5.08259 -6.20169,12.8018 -13.83939,8.76019 -7.6377,-4.04161 3.88094,-31.16458 8.53191,-41.26136 z m 203.08234,45.57012 c -41.13909,51.30632 -0.62478,79.35918 5.67843,34.92662 -2.46891,5.46098 -6.66034,13.75899 -14.86665,9.41649 -8.20629,-4.3425 4.19099,-33.49467 9.18822,-44.34311 z m -60.69357,15.66561 c -32.97228,41.12115 -0.48634,63.60461 4.56557,27.99266 -1.97879,4.37688 -5.35034,11.04218 -11.92756,7.56173 -6.5772,-3.48042 3.35679,-26.85954 7.36199,-35.55439 z m -147.15409,14.15328 c -6.67913,3.60842 -9.49737,11.40468 -11.52806,19.14686 -1.38358,4.99625 -2.24035,11.3542 -3.62393,16.35046 -5.13383,-11.75999 -11.29443,-25.77803 -24.51141,-29.96157 -2.16817,3.99255 -3.31419,7.36935 -3.90927,10.84323 1.96333,4.66919 5.74824,6.93001 8.30363,8.04682 11.63836,-7.45618 14.65461,18.31189 17.63452,26.90834 2.38283,-3.61267 2.63523,-6.10955 4.36583,-11.27125 0,0 3.78385,-14.13544 4.73678,-17.23504 1.08762,-3.53769 4.65264,-12.77789 6.93396,-12.69799 4.89983,0.14009 5.3188,3.84343 7.36199,6.24912 2.34946,-4.02764 3.85847,-5.75525 1.62648,-10.61495 -1.45412,-2.59202 -3.35483,-4.89305 -7.39052,-5.76403 z m 440.92009,1.3126 c -6.67914,3.60842 -9.49737,11.37615 -11.52807,19.11833 -1.38357,4.99625 -2.24034,11.38274 -3.62392,16.37899 -5.13383,-11.75998 -11.29443,-25.80656 -24.51141,-29.9901 -2.16817,3.99254 -3.34273,7.36935 -3.93781,10.84323 1.96334,4.66918 5.74824,6.95854 8.30364,8.07536 11.63835,-7.45619 14.68314,18.31188 17.66305,26.90833 2.38283,-3.61267 2.63523,-6.10954 4.36583,-11.27125 0,0 3.78384,-14.13544 4.73678,-17.23503 1.08762,-3.5377 4.6241,-12.7779 6.90543,-12.698 4.89982,0.14009 5.34732,3.8149 7.39052,6.22059 2.34946,-4.02765 3.82994,-5.72671 1.59795,-10.58642 -1.45413,-2.59202 -3.32631,-4.89305 -7.36199,-5.76403 z m -204.90856,72.39284 c -5.6991,6.16539 -10.49154,13.40389 -15.3232,22.17156 l 17.91987,12.698 c -6.70641,8.02194 -10.04655,13.82823 -14.32449,20.23119 6.73,7.99582 12.34083,10.39987 18.26229,14.35301 6.63987,-4.85603 12.07592,-14.4743 17.91987,-22.51397 -4.4963,-4.41983 -10.29257,-8.51876 -18.26229,-12.07023 5.54391,-5.24946 9.46541,-13.56222 15.00932,-23.14174 -7.1284,-4.50295 -13.20698,-8.09087 -21.20137,-11.72782 z m 51.33414,8.98847 c 53.22727,1.05791 107.98671,1.34291 155.40065,5.30748 15.79783,4.16476 28.4694,12.61054 32.07314,36.89553 -2.9919,46.77589 -54.25249,91.04296 -119.44677,92.93792 -65.19427,1.89495 -84.18834,-47.89246 -83.26461,-77.01549 0.92371,-29.12303 3.35722,-38.48865 15.23759,-58.12544 z m -244.05834,5.99232 c -5.5497,3.84452 -11.73297,6.15197 -15.66562,14.03913 -6.74625,11.62913 -10.0082,24.40884 -14.35301,36.83846 5.16686,12.74123 13.40318,7.86111 25.76694,8.16095 -8.02067,13.85226 -20.33117,19.10046 -31.61658,26.42325 10.21819,-3.41948 20.42821,-5.81246 30.6464,-10.78616 5.84448,-9.82398 10.02034,-16.92199 13.3543,-27.70732 l -3.25297,-7.81854 -21.20138,0.31389 -3.56685,-4.87946 c 5.33312,-9.19021 10.55656,-16.72251 17.60599,-13.04041 3.31736,-7.17447 3.28198,-14.36933 2.28278,-21.54379 z m 72.03571,16.49587 c 2.69819,38.80737 5.02568,75.47186 6.86308,114.27922 3.12193,-3.54031 5.1783,-7.71587 12.41265,-8.78873 -1.52186,-35.1556 -3.04372,-69.32553 -4.56558,-105.29257 -4.48106,0.0845 -8.498,1.44867 -14.71015,-0.19792 z m 190.68441,1.28132 -0.68484,10.8147 c 16.30476,12.56513 13.04488,32.19617 11.52807,50.73491 6.99753,-23.33618 6.44854,-44.78843 -10.84323,-61.54961 z m 134.45609,2.05451 c -38.28863,47.75139 -0.559,73.8836 5.30747,32.5297 -2.29784,5.08259 -6.20169,12.8018 -13.83939,8.76019 -7.6377,-4.04161 3.88094,-31.19311 8.53192,-41.28989 z m -353.51793,2.91055 c -38.28863,51.93079 -0.55899,80.32802 5.30748,35.35465 -2.29784,5.52744 -6.20169,13.92598 -13.83939,9.53063 -7.6377,-4.39535 3.88094,-33.90479 8.53191,-44.88528 z m 120.81644,1.71209 c -41.52266,51.78469 -0.59794,80.08735 5.76404,35.24051 -2.49194,5.51189 -6.72651,13.88508 -15.00932,9.50209 -8.28281,-4.38298 4.20146,-33.793 9.24528,-44.7426 z m 169.98194,10.64349 c -3.69427,0.24435 -13.83526,8.55313 -16.6358,17.80573 -2.92572,9.4488 0.7762,11.5712 9.47356,10.9859 0,0 -10.19396,16.30496 -11.75634,23.28442 -2.41434,10.78527 13.06716,12.9556 19.8317,11.98463 6.16715,-0.88522 23.28441,-9.67331 23.28441,-9.67331 0,0 -9.60024,2.11748 -19.8317,3.22444 -7.34818,0.79501 -16.23402,-1.30307 -16.37899,-8.30364 -0.25318,-12.2256 20.23589,-29.9828 23.76951,-30.21838 l 0.68484,-7.81854 -13.15456,11.52807 c 0,0 -3.18786,0.39744 -6.22059,-1.62648 -6.16204,-4.1123 -0.29515,-14.09369 2.31132,-13.38283 4.18554,0.66673 4.4016,1.91407 5.30748,5.76403 0,0 5.5427,-4.36887 4.85092,-6.90543 -0.69179,-2.53656 -2.90499,-5.28404 -4.62264,-6.44887 -0.22909,-0.15536 -0.53095,-0.22502 -0.91312,-0.19974 z m -408.19064,4.87945 -0.74191,11.69928 c 17.58228,13.54965 14.07684,34.70994 12.44119,54.70126 7.54581,-25.16465 6.94736,-48.32607 -11.69928,-66.40054 z m -37.80864,2.11158 c -9.278156,18.43238 -13.344663,38.11643 -12.070232,57.38353 2.990006,45.20345 48.086702,54.63461 97.674702,47.2822 -11.05496,16.6526 -21.96931,36.21099 -24.93944,69.79618 -1.11922,30.37341 12.32014,51.89472 34.24179,52.16166 53.6626,-1.014 71.60246,-121.54721 142.18902,-124.24062 11.55076,-0.20906 18.19404,4.8907 25.11065,16.6358 2.27853,-6.60607 3.52519,-13.32904 3.25297,-26.73713 -4.46595,-9.88299 -12.92278,-14.78862 -26.08083,-15.9795 -76.3687,5.76469 -107.30388,129.10708 -148.7235,131.08897 -18.72955,0.34513 -25.01067,-17.43506 -24.45434,-35.55439 1.94768,-22.0326 9.38345,-45.88661 20.4024,-67.31364 33.90779,-5.17439 67.65404,-17.40684 93.56293,-32.07222 l -0.69955,-24.45435 c -31.36747,15.00133 -55.73831,34.9674 -124.67971,32.8712 -23.78465,-0.72319 -52.72908,-5.71056 -59.35243,-36.86699 -3.126125,-14.70537 1.15288,-29.32565 4.56557,-44.0007 z m 314.1684,50.53517 c -6.67914,3.60843 -9.52591,11.40469 -11.5566,19.14687 -1.38358,4.99625 -2.21181,11.38274 -3.59539,16.37899 -5.13383,-11.75998 -11.29443,-25.80656 -24.51141,-29.9901 -2.16818,3.99254 -3.34273,7.36935 -3.93781,10.84323 1.96333,4.66918 5.74824,6.95854 8.30363,8.07536 11.63836,-7.45619 14.65461,18.31188 17.63453,26.90833 2.38282,-3.61267 2.66376,-6.13808 4.39436,-11.29979 0,0 3.78384,-14.13544 4.73678,-17.23503 1.08762,-3.5377 4.6241,-12.74936 6.90543,-12.66946 4.89982,0.14009 5.34732,3.8149 7.39052,6.22059 2.34946,-4.02765 3.82993,-5.75525 1.59795,-10.61495 -1.45413,-2.59203 -3.32631,-4.89305 -7.36199,-5.76404 z m 40.00582,54.13056 -123.92673,55.12928 0,7.16224 120.98765,-52.50407 z M 209.0405,799.3617 c -38.28863,54.94645 -0.55899,84.99415 5.30748,37.40915 -2.29784,5.84844 -6.20169,14.75193 -13.83939,10.10133 -7.6377,-4.65058 3.88094,-35.89234 8.53191,-47.51048 z m 380.59747,1.85476 c -40.36894,58.44803 -0.59237,90.42355 5.59283,39.80608 -2.42269,6.22112 -6.52862,15.67607 -14.5813,10.7291 -8.05267,-4.94696 4.0848,-38.17665 8.98847,-50.53518 z m -97.81737,3.59539 c -2.87317,0.18096 -6.92648,2.90206 -12.07023,8.98847 -1.14975,2.6089 -1.22101,5.20965 -1.3126,7.81854 2.3207,3.10155 4.78697,6.1279 8.81726,8.16096 -3.73247,11.19743 -37.0745,34.12896 -49.25111,42.06033 17.30534,-8.05639 39.51287,-21.6068 53.64547,-39.86315 l 5.39308,1.39821 0.71337,-7.84708 c -0.84384,-0.83967 -1.98165,-0.71642 -2.99615,-0.97018 3.48623,-11.35224 2.45599,-19.47288 -2.36839,-19.7461 -0.18092,-0.0102 -0.37916,-0.0121 -0.5707,0 z m -181.96657,3.45272 -13.69671,11.72781 c 0.82955,79.92803 18.4269,103.19019 45.9696,106.32075 32.56984,0.29644 51.39927,-34.44339 61.32133,-54.78686 3.69502,23.94576 6.15058,49.6282 33.58549,51.53389 25.22088,-3.76789 34.25099,-9.14846 48.25238,-24.48288 l 9.13115,-21.17284 c 16.72739,11.01804 24.07702,26.13499 56.41334,24.45434 3.64901,-6.23899 6.00105,-12.0557 10.44375,-18.26228 2.39724,-59.37361 -21.90123,-80.50812 -60.32262,-31.64512 l -18.6047,32.30142 c -12.0365,8.66669 -24.5895,12.06264 -37.49476,12.04169 -27.13233,-2.58268 -28.11098,-26.22419 -31.3027,-48.56626 -9.89667,0.0518 -16.31672,19.14932 -28.04973,30.6464 -11.41591,9.97543 -21.72612,21.4713 -40.11996,20.85895 -43.02188,-7.84616 -32.57257,-44.78319 -35.52586,-90.96901 z m 178.65653,4.28022 c 2.93311,-0.17604 5.61308,2.57717 2.48253,10.21547 -3.10505,-1.28393 -5.57785,-2.99444 -7.16224,-5.36455 -0.023,-2.79507 2.39841,-4.714 4.67971,-4.85092 z m 37.58036,38.3508 c 1.59645,0.006 3.13077,0.32928 4.53704,1.05579 10.0136,5.85482 10.78494,13.6843 11.41393,21.20137 -11.63994,-3.79604 -21.85489,-9.02115 -30.01864,-16.29338 3.9349,-3.15338 9.27831,-5.98209 14.06767,-5.96378 z m -260.06638,17.72013 -0.68483,11.81341 c 16.30475,13.72316 13.04488,35.16731 11.52807,55.41463 6.99753,-25.48689 6.44854,-48.92211 -10.84324,-67.22804 z m 127.95015,59.32389 c -8.51937,8.56032 -11.51612,14.91975 -15.9795,21.85768 10.19267,4.08065 14.71885,9.09282 19.88877,14.0106 4.78216,-7.50058 10.77689,-14.98487 17.2921,-22.48544 -3.10213,-3.66415 -9.41669,-7.98219 -21.20137,-13.38284 z"
       id="path2996"
       inkscape:connector-curvature="0"
       sodipodi:nodetypes="cccccccccccccccccccccccscccccccccccccccccscssscscccsccccccscccccccccccccccccccccsccscccscccscccscccccccccsccccccccccccsccccccccccccccccssccccccccccccccccccccccccscccscccscsccsscsscccsccssscccccsccccccccccccsscccccccccscccccccccccscccsccccccccccccccccccccccccccccsccscccccccccccccc" />
  </g>
</svg>
